<svg enable-background="new 0 0 110 110" height="512" viewBox="0 0 110 110" width="512" xmlns="http://www.w3.org/2000/svg"><path d="m56.971279 69.593666h11.490119v28.622238h-11.490119z" fill="#bb9b45"/><path d="m82.8958054 28.0901089h-44.9316254v47.5959778h29.6701431 20.0419998 8.2541656c1.2298813 0 2.2269135-.9971466 2.2269135-2.2269135v-30.1074657c0-8.4289093-6.8328628-15.2615986-15.2615966-15.2615986z" fill="#feda6f"/><path d="m37.2265167 28.1075268c-8.2086124.3863926-14.5238781 7.4574261-14.5238781 15.6750317v29.6766167c0 1.2297668.997036 2.2269135 2.2269154 2.2269135h28.2961655v-32.3343812c0-8.673214-7.2351227-15.6569291-15.9992028-15.2441807z" fill="#f9c74b"/><path d="m25.5186501 72.8701324v-29.5180244c0-6.862484 5.5832157-12.4461575 12.4456978-12.4461575s12.44524 5.5836735 12.44524 12.4461575v29.5180244z" fill="#bb9b45"/><path d="m64.031036 11.784099h5.012508v36.758392h-5.012508z" fill="#f9c74b"/><path d="m64.031036 11.784099h16.417528v9.872699h-16.417528z" fill="#de594e"/><path d="m42.9207001 51.1221733h-28.714715c-1.3052816 0-2.3633871 1.0578766-2.3633871 2.3631134v17.0213661c0 1.3054199 1.0581055 2.3634796 2.3633871 2.3634796h28.7147141c1.3052826 0 2.3633881-1.0580597 2.3633881-2.3634796v-17.0213661c.0000008-1.3052368-1.0581046-2.3631134-2.3633872-2.3631134z" fill="#ededed"/><path d="m32.9161949 61.9581337 11.8316422 9.8875923-10.8402481-10.8026962 10.3197441-9.5263062-15.6639977 12.3625527-15.6646108-12.3625527 10.1920023 9.4079209-10.7125082 10.9210815 11.707221-10.0028305 4.4778957 4.1332626z" fill="#dbd8dd"/></svg>